<svg xmlns="http://www.w3.org/2000/svg" viewBox="263.5 -12 221 221">
<style>
  path { fill: #101013; }
  @media (prefers-color-scheme: dark) {
    path { fill: #ffffff; }
  }
</style>
<path d="M441.9,48.51c-2.1,1.59,2.56,3.98-.45,7.16-3.07,3.18-5.86.51-5.86.51,0,0,.57,4.89-4.15,5.12h-1.76s1.36,2.33,1.88,3.58c0,0,3.41,3.24,2.67,9.44l.51.45s.63-.17.91.06c.34.23,2.5,2.22,1.19,9.1,1.88,2.1,4.32,4.72,6.6,6.65,4.44,3.75,6.71,7.16,4.04,10.69-1.36,1.82-7.11,2.16-8.53,2.45-1.48.28-.85,5.06-.74,6.03.06.97,2.39,2.73,1.53,5.06-.85,2.33-1.08,2.33-4.15,3.18,0,0,2.96,1.99,2.56,4.95-.45,2.96-.85,2.1-2.67,3.13-1.82,1.08-2.44,1.88-2.27,2.84.23.91,3.64,9.15-.51,14.33-4.09,5.17-10.92,4.15-15.86,3.35-5-.74-8.13-2.05-9.04-1.76-.85.28-1.02,3.64-1.02,3.64,0,0,2.96,6.65,2.9,12.11,0,1.99,1.19,3.47,1.36,3.98.34.85.57,1.65.85,2.44l15.81,26.27c-8.07,3.01-15.35,3.98-22.17,3.64-14.9-.8-27.58-8.02-41.45-15.01-17.63-8.81-37.07-17.23-65.27-11.66,0,0,25.7-17.51,36.33-26.38,2.67-2.22,4.66-5.29,5.46-8.7.57-2.33.97-5.46.91-9.38,0,0-.8-.28-1.82-2.96-1.02-2.67-1.71-5.97-4.78-8.76-3.07-2.79-6.42-9.78-8.13-13.93-1.76-4.09-3.3-10.97-4.66-12.91-1.36-1.93-2.96-6.37-3.01-9.44-.06-3.01-1.71-7.33-1.02-9.21.63-1.88-1.99-5.63-1.93-8.13.11-2.44-1.31-2.16-1.93-6.54-.68-4.38-2.73-7.11.11-9.84,2.79-2.79-.97-6.6,2.5-9.67,3.47-3.13.51-4.89,1.31-6.25.8-1.42,4.78-2.67,7.68-2.96,2.84-.34-1.42-4.95,2.96-5.57,4.38-.63,5.86-.23,6.6-1.08.8-.85,1.82-4.83,4.72-5,2.9-.17,6.42,1.93,8.07,1.08,1.65-.85,1.99-2.67,3.92-3.07,1.93-.34,2.84-.4,3.01-1.19.17-.8,5.4-5.12,9.84-3.35,4.38,1.71,5.34,1.19,6.99.11,1.71-1.08,5.74-5.52,7.9-5.4,2.22.17,4.83-1.31,10.58-1.65,5.8-.34,11.37.63,15.24,3.07,3.81,2.44,8.13-1.93,13.42,1.99,3.24,2.39,2.44,5.8,2.5,6.08s4.78-4.89,8.3-1.25c3.47,3.58,2.84,3.64,7.28,4.49,4.43.85,8.02,2.44,5.34,5.63-2.73,3.18,2.9,5.23,2.05,9.15-.85,3.81-1.71,5.46-.4,5.91,1.36.45,6.2,2.05,5.17,6.42-1.02,4.32-4.83,4.26-5.8,4.26-.97.06.51,1.02-1.59,2.67Z"/>
</svg>
